<?xml version="1.0"?>
<svg version="1.1" xmlns="http://www.w3.org/2000/svg" width="240" height="48" style="border: dashed 2px #aaa"><path fill="#7fb0d4" d="M16.0126953125,39.20703125q0.033203125-0.697265625,0.033203125-1.361328125q0-2.4072265625,0.17431640625-4.7978515625t0.24072265625-4.7978515625q0.099609375-2.755859375,0.1826171875-5.4619140625t0.33203125-5.4453125q0.06640625-0.6806640625,0.39013671875-0.88818359375t0.97119140625-0.20751953125q0.298828125,0,0.796875,0.1162109375t0.498046875,0.564453125q0.232421875,0.033203125,0.46484375,0.033203125q0.3486328125,0,0.7138671875-0.06640625q0.59765625-0.099609375,1.22021484375-0.22412109375t1.23681640625-0.24072265625t1.1787109375-0.1162109375q0.1328125,0,0.37353515625,0.0166015625t0.4814453125,0.099609375t0.40673828125,0.20751953125t0.166015625,0.32373046875t-0.39013671875,0.35693359375t-1.02099609375,0.27392578125t-1.361328125,0.19921875t-1.427734375,0.14111328125t-1.23681640625,0.09130859375t-0.77197265625,0.033203125l-0.033203125,6.2421875l0.033203125,3.1044921875q0.5146484375,0,1.5439453125-0.033203125q0.4150390625-0.0166015625,0.830078125-0.0166015625q0.630859375,0,1.294921875,0.033203125q1.095703125,0.0498046875,1.9755859375,0.19921875t1.1123046875,0.53125q0,0.232421875-0.24072265625,0.37353515625t-0.53955078125,0.20751953125t-0.60595703125,0.0830078125t-0.43994140625,0.0166015625q-1.228515625,0-2.4736328125-0.0498046875t-2.45703125-0.19921875q0,2.0419921875-0.10791015625,4.05078125t-0.10791015625,4.05078125q0,0.8798828125,0.0166015625,1.73486328125t0.19921875,1.70166015625q0.4482421875-0.033203125,0.97119140625-0.0830078125t1.0625-0.12451171875t1.03759765625-0.12451171875t0.86328125-0.0498046875q0.19921875,0,0.53955078125,0.0498046875t0.697265625,0.166015625t0.6142578125,0.29052734375t0.25732421875,0.40673828125q0,0.265625-0.48974609375,0.47314453125t-1.25341796875,0.33203125t-1.66845703125,0.17431640625t-1.75146484375,0.06640625t-1.52734375,0.0166015625l-0.962890625,0q-0.9130859375,0-1.33642578125-0.34033203125t-0.58935546875-0.88818359375q-0.1328125-0.4482421875-0.1162109375-1.0126953125l0-0.232421875z M30.500380859375,32.83203125q0-0.33203125,0.90478515625-0.498046875t2.125-0.24072265625t2.53173828125-0.05810546875t2.125,0.0166015625q0.4150390625,0,0.97119140625,0.15771484375t0.55615234375,0.52294921875q0,0.298828125-0.265625,0.43994140625t-0.62255859375,0.20751953125t-0.697265625,0.06640625l-0.43994140625,0q-1.162109375,0-2.18310546875-0.0498046875t-2.11669921875-0.0498046875q-0.33203125,0-0.67236328125,0.033203125t-0.63916015625,0.033203125l-0.47314453125,0t-0.5146484375-0.0498046875t-0.4150390625-0.166015625t-0.17431640625-0.365234375z M43.72634765625,21.03662109375q-0.033203125-0.43994140625,0.07470703125-0.830078125t0.40673828125-0.6474609375t1.0126953125-0.25732421875q0.166015625,0,0.40673828125,0.033203125t0.4814453125,0.10791015625t0.39013671875,0.20751953125t0.1494140625,0.365234375q0,0.6142578125,0.04150390625,1.61865234375t0.10791015625,2.091796875t0.12451171875,2.125t0.10791015625,1.68505859375q1.294921875-0.06640625,2.6064453125-0.06640625t2.58984375-0.06640625l2.291015625-0.06640625l0-1.6435546875q0-2.755859375-0.10791015625-5.52001953125t-0.37353515625-5.52001953125q0-0.19921875,0.166015625-0.32373046875t0.39013671875-0.19091796875t0.46484375-0.0830078125t0.37353515625-0.0166015625q0.3818359375,0,0.82177734375,0.1162109375t0.50634765625,0.498046875l0.099609375,0.7138671875q0.4150390625,2.98828125,0.564453125,5.91015625t0.2158203125,5.84375q0.19921875,0.033203125,0.42333984375,0.10791015625t0.45654296875,0.14111328125q0.166015625,0.06640625,0.47314453125,0.19921875t0.30712890625,0.4150390625q0,0.265625-0.232421875,0.4150390625t-0.52294921875,0.22412109375t-0.564453125,0.09130859375t-0.34033203125,0.0166015625q0.033203125,1.228515625,0.033203125,2.44873046875l0,2.44873046875l0,5.3623046875l0,2.98828125q0,0.19921875-0.19091796875,0.35693359375t-0.45654296875,0.25732421875t-0.55615234375,0.1328125t-0.52294921875,0.033203125t-0.5478515625-0.033203125t-0.564453125-0.1328125t-0.43994140625-0.2490234375t-0.19091796875-0.365234375l0-0.7138671875q0.06640625-3.154296875,0.1494140625-6.25048828125t0.166015625-6.21728515625q-1.8095703125,0.06640625-3.67724609375,0.0830078125t-3.71044921875,0.0830078125q0.19921875,2.3408203125,0.45654296875,4.67333984375t0.53955078125,4.67333984375q0,0.19921875-0.19091796875,0.35693359375t-0.4482421875,0.25732421875t-0.5478515625,0.1328125t-0.52294921875,0.033203125q-0.4814453125,0-1.05419921875-0.166015625t-0.63916015625-0.6142578125q-0.19921875-1.759765625-0.37353515625-3.884765625t-0.30712890625-4.34130859375t-0.20751953125-4.34130859375t-0.07470703125-3.8515625q0-0.4150390625-0.033203125-0.85498046875z M62.015791015625,33.3466796875q0-0.33203125,0.07470703125-0.8798828125t0.17431640625-1.08740234375t0.232421875-1.00439453125t0.3154296875-0.59765625q0.1328125-0.1328125,0.45654296875-0.265625t0.6806640625-0.19091796875t0.6640625,0.0498046875t0.37353515625,0.43994140625q-0.232421875,0.298828125-0.42333984375,1.02099609375t-0.29052734375,1.60205078125q-0.0830078125,0.7470703125-0.0830078125,1.5439453125l0,0.2822265625q0.0166015625,0.9296875,0.166015625,1.7099609375t0.45654296875,1.28662109375t0.85498046875,0.50634765625q1.162109375,0,2.125-1.07080078125t1.7099609375-2.61474609375t1.3115234375-3.27880859375t0.962890625-3.02978515625q0.099609375-0.3818359375,0.47314453125-0.5146484375t0.80517578125-0.09130859375t0.77197265625,0.20751953125t0.40673828125,0.3984375q-0.33203125,2.7890625-0.52294921875,5.578125t-0.19091796875,5.611328125q0,0.5478515625,0.0498046875,1.00439453125t-0.0498046875,0.7802734375t-0.43994140625,0.5146484375t-1.08740234375,0.19091796875q-0.166015625,0-0.42333984375-0.033203125t-0.53125-0.10791015625t-0.46484375-0.22412109375t-0.19091796875-0.3486328125q0-1.228515625,0.09130859375-2.5234375t0.25732421875-2.5068359375q-0.4482421875,0.6474609375-0.98779296875,1.28662109375t-1.18701171875,1.15380859375t-1.39453125,0.82177734375t-1.6103515625,0.30712890625q-1.228515625,0-1.93408203125-0.5810546875t-1.0625-1.45263671875t-0.4482421875-1.90087890625t-0.09130859375-1.9921875z M77.6323828125,29.9765625q0-1.162109375,0.10791015625-3.021484375t0.25732421875-3.8349609375t0.37353515625-3.74365234375t0.48974609375-2.71435546875q0.099609375-0.4150390625,0.47314453125-0.498046875t0.75537109375-0.0830078125q0.5146484375,0,0.88818359375,0.1826171875t0.37353515625,0.796875q0,3.021484375-0.37353515625,6.05126953125t-0.40673828125,6.05126953125q0.5146484375-0.7802734375,1.328125-1.17041015625t1.7265625-0.39013671875q1.26171875,0,2.1748046875,0.5146484375t1.4775390625,1.328125t0.83837890625,1.88427734375t0.27392578125,2.18310546875q0,0.6142578125-0.12451171875,1.53564453125t-0.37353515625,1.9423828125t-0.630859375,2.025390625t-0.90478515625,1.80126953125t-1.20361328125,1.28662109375t-1.494140625,0.48974609375q-0.166015625,0-0.43994140625-0.0498046875t-0.5478515625-0.1494140625t-0.45654296875-0.25732421875t-0.1826171875-0.39013671875q0-0.265625,0.32373046875-0.37353515625t0.52294921875-0.10791015625q0.7470703125-0.33203125,1.328125-1.38623046875t0.97119140625-2.31591796875t0.58935546875-2.49853515625t0.19921875-2.01708984375q0-0.4482421875-0.1328125-1.1953125t-0.40673828125-1.4775390625t-0.7470703125-1.26171875t-1.12060546875-0.53125q-0.7802734375,0-1.2451171875,0.80517578125t-0.73046875,1.8759765625t-0.35693359375,2.2080078125t-0.09130859375,1.78466796875q0,0.4150390625,0.14111328125,0.82177734375t0.32373046875,0.8134765625t0.32373046875,0.830078125t0.14111328125,0.83837890625q0,0.19921875-0.17431640625,0.33203125t-0.40673828125,0.2158203125t-0.48974609375,0.10791015625t-0.39013671875,0.02490234375q-0.9462890625,0-1.3115234375-0.4482421875t-0.630859375-1.26171875q-0.5810546875-1.8427734375-0.80517578125-3.74365234375t-0.22412109375-3.81005859375z"/><path fill="#" d=""/></svg>
